<svg width="790" height="593" viewBox="0 0 790 593" fill="none" xmlns="http://www.w3.org/2000/svg">
<rect width="790" height="593" fill="#1E1E1E"/>
<line x1="43.5" y1="2.18557e-08" x2="43.5" y2="593" stroke="white"/>
<line x1="90.5" y1="2.18557e-08" x2="90.5" y2="593" stroke="white"/>
<line x1="137.5" y1="2.18557e-08" x2="137.5" y2="593" stroke="white"/>
<line x1="184.5" y1="2.18557e-08" x2="184.5" y2="593" stroke="white"/>
<line x1="231.5" y1="2.18557e-08" x2="231.5" y2="593" stroke="white"/>
<line x1="278.5" y1="2.18557e-08" x2="278.5" y2="593" stroke="white"/>
<line x1="325.5" y1="2.18557e-08" x2="325.5" y2="593" stroke="white"/>
<line x1="372.5" y1="2.18557e-08" x2="372.5" y2="593" stroke="white"/>
<line x1="419.5" y1="2.18557e-08" x2="419.5" y2="593" stroke="white"/>
<line x1="466.5" y1="2.18557e-08" x2="466.5" y2="593" stroke="white"/>
<line x1="513.5" y1="2.18557e-08" x2="513.5" y2="593" stroke="white"/>
<line x1="560.5" y1="2.18557e-08" x2="560.5" y2="593" stroke="white"/>
<line x1="607.5" y1="2.18557e-08" x2="607.5" y2="593" stroke="white"/>
<line x1="654.5" y1="2.18557e-08" x2="654.5" y2="593" stroke="white"/>
<line x1="701.5" y1="2.18557e-08" x2="701.5" y2="593" stroke="white"/>
<line x1="748.5" y1="2.18557e-08" x2="748.5" y2="593" stroke="white"/>
<line y1="46.5" x2="790" y2="46.5" stroke="white"/>
<line y1="93.5" x2="790" y2="93.5" stroke="white"/>
<line y1="137.5" x2="790" y2="137.5" stroke="white"/>
<line y1="179.5" x2="790" y2="179.5" stroke="white"/>
<line y1="218.5" x2="790" y2="218.5" stroke="white"/>
<line y1="260.5" x2="790" y2="260.5" stroke="white"/>
<line y1="303.5" x2="790" y2="303.5" stroke="white"/>
<line y1="346.5" x2="790" y2="346.5" stroke="white"/>
<line y1="388.5" x2="790" y2="388.5" stroke="white"/>
<line y1="429.5" x2="790" y2="429.5" stroke="white"/>
<line y1="469.5" x2="790" y2="469.5" stroke="white"/>
<line y1="513.5" x2="790" y2="513.5" stroke="white"/>
<line y1="556.5" x2="790" y2="556.5" stroke="white"/>
</svg>
